name processed_emg_signals
nRows=33
nColumns=7
 
endheader
time	LGLTMED	LRF	LADDLONG	LST	LTA	LGM
0.642	0.7514696926187135	0.8072822679326042	0.3294637932427223	0.1638719222279641	0.952736233239334	0.1363938584045311
0.643	0.7590667304123697	0.8082186175410242	0.3297210600143703	0.1622404934491832	0.9489025281353232	0.1360929941615233
0.644	0.7667034576881927	0.809008976134544	0.3299425965143419	0.1606423450114647	0.944965494965432	0.1358023922744083
0.645	0.7743696660414422	0.8096552739590629	0.3301287761803776	0.15907734326002	0.9409304909956808	0.1355217326650375
0.646	0.7820550733852021	0.8101596099450641	0.3302800098644854	0.1575453316469722	0.9368028255869106	0.1352507176172638
0.647	0.7897493413279814	0.8105242450371352	0.3303967442360442	0.1560461310138842	0.9325877534456154	0.1349890709526321
0.648	0.7974420927770777	0.8107515952094375	0.3304794601104893	0.1545795399359711	0.9282904681391012	0.1347365371520479
0.649	0.8051229297366512	0.8108442242064674	0.3305286707154334	0.1531453351252344	0.923916095877744	0.134492880428261
0.65	0.8127814512696653	0.8108048360467289	0.3305449199055104	0.1517432718895199	0.9194696895665736	0.1342578837537882
0.651	0.8204072715923606	0.8106362673247756	0.3305287803365532	0.1503730846440899	0.9149562231279867	0.1340313478485287
0.652	0.8279900382687496	0.8103414793447521	0.3304808516091367	0.1490344874719051	0.9103805860965548	0.1338130901310146
0.653	0.8355194504718949	0.8099235501165348	0.3304017583907601	0.1477271747283902	0.9057475784853308	0.1336029436368237
0.654	0.8429852772780103	0.8093856662434239	0.3302921485255456	0.1464508216861083	0.9010619059211498	0.1334007559074813
0.655	0.8503773759589089	0.808731114728828	0.3301526911399338	0.14520508521442	0.8963281750441195	0.1332063878529036
0.656	0.8576857102372546	0.8079632747283243	0.3299840747526031	0.1439896044889137	0.8915508891644277	0.1330197125903977
0.657	0.8649003684671605	0.8070856092726865	0.3297870053966648	0.1428040017252336	0.8867344441681575	0.1328406142632252
0.658	0.872011581700371	0.806101656986947	0.3295622047620021	0.1416478829321016	0.8818831246633149	0.1326689868419026
0.659	0.8790097415964904	0.8050150238292654	0.329310408365486	0.140520838678327	0.8770011003581272	0.1325047329118069
0.66	0.8858854181345129	0.8038293748718169	0.3290323637567142	0.1394224448694775	0.8720924226658227	0.1323477624510665
0.661	0.8926293770828353	0.8025484261443745	0.3287288287667275	0.1383522635302851	0.8671610215331154	0.1321979916032883
0.662	0.8992325971846937	0.80117593655971	0.3284005698069441	0.1373098435899003	0.862210702493145	0.1320553414500735
0.663	0.905686287015522	0.7997156999397349	0.3280483602253193	0.1362947216678364	0.8572451439468193	0.131919736788786
0.664	0.9119819014676422	0.7981715371613649	0.3276729787262245	0.1353064228591269	0.8522678946791329	0.1317911049214185
0.665	0.91811115781661	0.7965472884416913	0.3272752078600627	0.13434446151765	0.847282371618993	0.1316693744607296
0.666	0.9240660513225304	0.7948468057824972	0.3268558325878313	0.1334083420368359	0.8422918578521089	0.1315544741599265
0.667	0.9298388703189924	0.7930739455939362	0.3264156389252853	0.13249755962681	0.8372995008964821	0.131446331772164
0.668	0.9354222107410918	0.7912325615160776	0.3259554126708779	0.1316116010869332	0.8323083112485419	0.1313448729459429
0.669	0.9408089900430108	0.7893264974556324	0.3254759382207921	0.1307499455724808	0.8273211612058874	0.1312500201621807
0.67	0.9459924604546288	0.7873595808532485	0.3249779974739115	0.1299120653541345	0.8223407839700716	0.131161691718392
0.671	0.9509662215263496	0.7853356161951875	0.3244623688286228	0.1290974265688839	0.8173697730307664	0.1310798007649546
0.672	0.9557242319116008	0.7832583787813551	0.3239298262727115	0.1283054899609186	0.8124105818308048	0.1310042543980069
0.673	0.9602608203373018	0.7811316087605582	0.3233811385671349	0.127535711610854	0.8074655237103445	0.1309349528130056
0.674	0.9645706957151796	0.7789590054424984	0.3228170685241794	0.1267875436515275	0.8025367721275671	0.1308717885225193
